<?xml version="1.0" encoding="UTF-8" standalone="no"?>
<svg
   id="katman_1"
   data-name="katman 1"
   version="1.1"
   viewBox="0 0 479.99999 479.99998"
   sodipodi:docname="symbol.svg"
   width="480"
   height="480"
   inkscape:version="1.4.3 (0d15f75, 2025-12-25)"
   xmlns:inkscape="http://www.inkscape.org/namespaces/inkscape"
   xmlns:sodipodi="http://sodipodi.sourceforge.net/DTD/sodipodi-0.dtd"
   xmlns="http://www.w3.org/2000/svg"
   xmlns:svg="http://www.w3.org/2000/svg">
  <sodipodi:namedview
     id="namedview7"
     pagecolor="#ffffff"
     bordercolor="#000000"
     borderopacity="0.25"
     inkscape:showpageshadow="2"
     inkscape:pageopacity="0.0"
     inkscape:pagecheckerboard="0"
     inkscape:deskcolor="#d1d1d1"
     inkscape:zoom="0.94434529"
     inkscape:cx="324.56349"
     inkscape:cy="281.14716"
     inkscape:window-width="1920"
     inkscape:window-height="1009"
     inkscape:window-x="-8"
     inkscape:window-y="-8"
     inkscape:window-maximized="1"
     inkscape:current-layer="katman_1" />
  <defs
     id="defs1">
    <style
       id="style1">
      .cls-1 {
        fill: #1d1d1b;
      }

      .cls-1, .cls-2 {
        fill-rule: evenodd;
        stroke-width: 0px;
      }

      .cls-2 {
        fill: #dd0c15;
      }
    </style>
  </defs>
  <path
     class="cls-2"
     d="M 479.96126,3.4065805 C 479.68805,1.7042921 478.97351,3.0913419 478.97351,3.0913419 L 459.84903,36.275457 c -0.71454,1.502638 -0.98774,2.690036 -1.4606,2.669021 -0.30473,-0.02102 -0.27321,2.416829 -0.93521,2.395813 -0.89318,-0.05254 -0.5254,0.567429 -0.9247,1.271462 -0.72505,1.250447 -14.39589,28.056235 -16.5185,32.532623 -2.1121,4.486896 -18.494,41.800634 -21.21556,47.790174 -6.85118,15.35212 -13.67085,30.72525 -20.42746,46.1194 -2.09108,4.81264 -8.38535,19.58683 -12.56751,29.14906 1.42908,4.05607 2.7741,7.94402 3.91947,11.36961 0.33625,1.00876 0.58844,2.02803 0.75657,3.06832 l 2.45886,7.32404 -5.52718,7.06135 c -1.06131,2.34327 -3.13137,8.65855 -4.19268,13.18748 -0.2627,1.13486 -0.662,3.09985 -1.15587,5.57972 -1.90194,9.39411 -5.09636,25.11401 -8.8477,35.9372 -2.29073,6.63052 -15.04739,40.89695 -39.9092,64.41375 -9.25751,8.74262 -19.61835,15.69889 -29.80056,21.21556 3.00528,9.5097 5.98953,18.98787 6.79865,21.35216 1.67076,4.94925 8.81617,27.56236 10.99132,34.49761 2.18565,6.92474 7.57623,24.90385 7.57623,24.90385 1.4501,5.26448 1.85991,8.46941 3.0368,8.46941 0.73555,0 1.35552,-1.00876 1.35552,-1.00876 0,0 1.63924,-2.5009 2.46937,-3.40458 0.83013,-0.89318 0.88267,-2.6375 1.06131,-3.23645 0.18914,-0.63048 2.53241,-3.04731 2.53241,-3.04731 0,0 4.67604,-13.04037 5.04382,-14.17523 0.36778,-1.13485 1.77584,-2.21717 1.95448,-2.7846 0.17863,-0.56743 1.17689,-1.17689 1.17689,-1.17689 0,0 5.66379,-6.75662 5.80039,-7.19795 0.1366,-0.46235 2.9002,-4.0981 3.35204,-4.54994 0.46235,-0.44134 1.21892,-1.25045 1.31349,-1.82839 0.0946,-0.57794 0,-1.16638 0,-1.16638 0,0 3.80388,-16.16123 4.67604,-20.16476 0.85114,-4.00353 6.03157,-25.11401 6.44138,-27.18408 0.40981,-2.07006 2.81613,-4.30826 2.85816,-5.04382 0.042,-0.72504 2.73207,-13.95456 3.64626,-14.92129 0.90368,-0.96673 0.63048,-1.74432 0.85114,-2.31175 0.23118,-0.56743 9.39411,-16.23479 11.29605,-18.22079 1.91245,-1.986 0.60946,-5.25398 0.60946,-5.25398 0,0 1.28197,-2.648 1.28197,-3.55168 0,-0.90369 0.45185,-1.49213 0.45185,-1.49213 l 2.99476,-3.57271 c 0.94572,-1.12435 1.50264,-1.53416 1.77585,-2.29073 0.2732,-0.75657 5.80039,-19.86003 6.57798,-22.40296 0.76708,-2.55343 1.30298,-3.18391 2.08057,-5.44312 0.76708,-2.25921 6.49391,-20.02815 7.80741,-24.29438 1.31349,-4.25572 8.07011,-27.13154 9.39411,-30.98796 1.30299,-3.8354 4.7601,-15.81447 5.80039,-18.3679 0.7986,-1.7233 0.7986,-3.45711 0,-5.18042 -0.40981,-0.89318 -1.64975,-3.02629 -3.05782,-5.45363 -1.40806,-2.42733 1.14537,-5.52718 0.86166,-6.98779 -0.25219,-0.96673 -0.14711,-1.90194 0.31524,-2.79511 0.28371,-0.5254 0.18914,-1.70229 0.36777,-2.54293 0.18915,-0.85114 1.46061,-4.06657 1.64975,-5.08584 0.18915,-1.01928 3.45712,-13.02987 3.45712,-13.02987 l 7.22947,-26.52207 2.67953,-9.25751 c 0.35727,-1.27146 -0.65149,-1.75482 -0.69353,-2.31175 -0.0525,-0.71454 0.17864,-1.83889 0.74607,-3.95099 0.46235,-1.69178 4.06658,-14.2698 4.78112,-15.65685 0.73555,-1.37654 1.63924,-4.67604 2.09108,-7.22947 0.45184,-2.553431 2.53242,-8.133154 3.91947,-11.495699 1.38705,-3.362545 1.69178,-5.106865 2.19616,-6.409851 1.1874,-3.057814 1.38705,-4.171658 1.51314,-5.979025 0.1261,-1.807368 0.72505,-5.317025 0.7881,-5.979026 0.063,-0.662001 1.59721,-4.381816 1.59721,-4.381816 0.12609,-0.893176 1.20841,-3.856419 2.44835,-6.556963 1.23994,-2.700544 3.07883,-7.586742 3.98252,-9.562237 0.90368,-1.975495 1.99651,-4.760103 2.15413,-6.052581 0.15762,-1.292478 1.81787,-4.802134 2.65851,-6.966773 0.84063,-2.143622 2.43784,-6.430867 3.11035,-8.290775 0.67251,-1.870415 2.09109,-4.171657 2.09109,-4.171657 0.2732,-0.987748 1.25044,-3.099846 1.79686,-4.171657 0.54641,-1.071812 0.17863,-4.308261 0.71454,-5.411596 0.75657,-1.618225 1.22943,-2.931719 1.18739,-3.288989 -0.042,-0.357271 3.17341,-7.6708061 2.88969,-9.3730945"
     id="path1" />
  <path
     class="cls-2"
     d="m 238.55154,171.3657 c 0.30473,0.42032 0.69353,0.86165 1.08232,1.5867 0.95623,1.74432 1.80737,4.64452 2.13312,6.84068 0.17863,1.28197 1.74432,1.77584 1.25044,2.3748 -0.47285,0.60946 1.06131,4.73908 1.06131,4.73908 l 5.07534,17.36965 4.80213,21.87756 c 0.42032,2.01753 6.74611,18.72517 6.79865,19.70241 0.0525,0.97724 6.66204,23.94762 8.23823,24.77775 0.87216,0.45185 3.79337,8.21722 6.56747,15.82498 1.8494,-6.3363 2.94223,-12.83021 3.85642,-18.37841 l 0.28372,-1.64975 c 0.2627,-1.82838 0.3993,-3.65677 0.42032,-5.49566 0.18914,-5.29601 0.42031,-12.23125 4.29775,-21.37317 -0.44134,-7.90198 -0.10508,-15.21552 0.063,-19.09295 l 0.063,-1.77585 c -0.30473,-4.15064 -0.95622,-8.23823 -1.96498,-12.27329 -0.42032,-1.63924 -0.7881,-3.27848 -1.11385,-4.93874 -0.58844,-2.82663 -2.1226,-10.28728 -3.85641,-12.45192 l -16.41343,-13.41866 1.87042,-1.73381 c -8.14367,-1.14536 -16.30834,-1.986 -24.51506,-2.54292"
     id="path2" />
  <path
     class="cls-2"
     d="m 179.87513,62.608388 c 0.80912,1.239938 5.15941,5.884453 5.11738,6.641026 0.73555,0.935208 1.39756,2.143622 1.39756,2.143622 l 10.60252,11.169954 c 0,0 15.95107,14.217261 17.05441,15.089421 1.10333,0.87216 1.4606,2.931719 1.99651,3.982519 0.54641,1.05079 -0.36778,1.52365 2.28022,4.90721 0.2522,0.31524 0.5254,0.80911 0.7881,1.36603 19.26108,-0.12609 38.53266,-0.15762 57.79374,-0.10508 -0.14711,-1.66025 -0.19965,-3.33102 -0.14711,-5.00178 0.11559,-4.634009 2.15413,-5.148899 5.21195,-7.754871 3.05781,-2.605973 4.0981,-3.75134 5.31702,-5.317025 1.21892,-1.565685 8.66906,-12.809194 9.43614,-13.817958 0.75657,-0.998255 8.23824,-8.511442 13.82847,-13.166465 3.27848,-2.994767 6.29426,-6.231216 9.04735,-9.709348 -5.31703,-0.399303 -9.18396,0 -9.18396,0 0,0 -2.31175,-0.399303 -3.77235,-0.451842 -1.46061,-0.06305 -8.37484,-0.788097 -10.67608,-0.851145 -2.29073,-0.06305 -10.81268,1.271463 -14.67961,1.90194 -3.85642,0.640985 -11.233,1.029779 -11.233,1.029779 0,0 -2.19617,-0.189143 -4.27674,-0.525397 -2.09108,-0.325747 -6.05258,-1.828384 -6.05258,-1.828384 -2.84766,-0.10508 -15.25755,0.189143 -17.75844,0.157619 -2.49039,-0.04203 -7.74436,-0.210159 -7.74436,-0.210159 0,0 -2.22769,-0.04203 -3.06833,0.04203 -0.83012,0.08406 -15.71989,-0.283715 -15.71989,-0.283715 -1.80737,0.956224 -3.6988,1.712796 -5.66379,2.25921 -1.42908,0.35727 -10.39236,-0.252191 -10.45541,-0.273207 -0.0525,-0.02102 -3.05782,-0.262699 -3.33102,-0.493874 -0.0841,-0.07355 -0.17864,-0.105079 -0.28372,-0.09457 -2.09108,0.252191 -5.08585,-0.115588 -5.25398,-0.115588 l -7.74436,0.325747 c -2.81613,0.252191 -9.01582,0.05254 -9.88798,0.05254 -0.59895,-0.07356 0.22067,0.914192 0.59895,1.28197 0.95623,1.74432 4.87569,5.190929 6.4729,7.639282"
     id="path3" />
  <path
     class="cls-2"
     d="m 128.94309,394.51259 c -9.35208,0.3888 -18.70416,0.59895 -28.05624,0.63048 0.60946,6.40985 1.09283,11.42214 1.20842,12.21024 0.34676,2.22769 2.62698,30.01071 2.55343,31.59741 -0.0736,1.58671 1.50264,6.38884 1.50264,6.38884 0,0 0.74606,5.62175 1.49213,8.17519 0.73555,2.54292 1.10333,9.53071 2.79511,15.75142 1.68127,6.22071 2.78461,8.17519 2.78461,8.17519 0,0 7.90198,-40.52918 11.47468,-61.4295 1.09283,-6.46239 2.01753,-11.29605 2.09109,-11.7584 0.24168,-1.47111 0.96673,-2.66902 0.78809,-2.99476 -0.17863,-0.32575 0.49388,-2.84766 0.50438,-3.08934 0,-0.10508 0.40981,-1.77585 0.85115,-3.65677"
     id="path4" />
  <path
     class="cls-2"
     d="m 115.10411,194.47269 c -9.98255,-4.91772 -30.609665,-18.98787 -39.678029,-25.29264 l -6.115628,-4.21369 c -0.315239,6.22071 -0.556922,12.43091 -0.735557,18.65161 0.03152,2.71106 -0.06305,3.87744 1.155875,4.59198 1.22943,0.72505 1.754828,2.31175 1.754828,2.31175 0,0 0.157619,3.59372 0.388794,5.03331 0.210159,1.42908 -0.903684,3.55169 -1.197906,4.17166 -0.294223,0.65149 0.136603,1.76533 0.136603,1.76533 0,0 6.31528,26.31192 7.092868,30.07376 0.767081,3.76185 4.802135,23.29614 4.938738,24.80928 0.136604,1.51315 5.821406,45.42588 6.77763,51.64659 0.493874,3.27848 2.574448,17.10695 4.51842,30.13681 5.684802,-1.68127 11.390624,-3.24696 17.138474,-4.69706 -1.14537,-3.66727 -2.10159,-8.88972 -2.42734,-16.80221 -0.14711,-3.57271 0.042,-13.8705 0.31524,-28.01421 0.0841,-3.65676 0.14711,-7.31353 0.18914,-10.9703 0,-4.66553 1.09283,-8.47992 2.54293,-11.53773 -1.34502,-3.20493 -2.01753,-6.54646 -2.02804,-10.01408 0,-9.05786 0.042,-39.2367 0.56743,-46.96004 0.34676,-5.0123 2.15413,-10.01408 4.69706,-14.70063"
     id="path5" />
  <path
     class="cls-2"
     d="m 49.975819,75.512154 c 0.609462,0 5.190929,2.122606 5.190929,2.122606 0,0 8.973792,10.907256 9.583253,11.70586 0.451842,0.788097 0.756573,1.628733 0.9247,2.521909 l 1.723304,6.462391 c 0.210159,0.714541 -0.399302,1.91245 -0.399302,1.91245 0,0 0.441334,4.61299 0.683017,6.96677 h 4.045562 c 16.623582,0 39.047558,0.21016 60.210568,0.44133 0.5254,-6.86169 0.98775,-12.924778 1.08232,-13.460684 0.19965,-1.271462 1.09283,-3.89845 1.09283,-3.89845 l 6.93525,-11.19097 8.37484,-8.248743 c 0,0 1.8494,-1.807368 2.13311,-2.248702 1.0613,-1.733812 17.41168,-14.217261 17.41168,-14.217261 0,0 -1.42908,-0.672509 -1.73381,-0.672509 l -9.80392,0.252191 c 0,0 -5.90547,0.336255 -6.40985,0.420318 -1.67077,0.15762 -3.35204,0.21016 -5.03331,0.15762 -3.45712,-0.168127 -6.90373,-0.399302 -10.35034,-0.693525 -0.78809,-0.126096 -7.5342,0.76708 -7.5342,0.76708 0,0 -21.22607,-0.02101 -23.63239,-0.231175 -2.40632,-0.210159 -6.504419,-1.208414 -6.504419,-1.208414 l -8.57449,-0.399302 -19.744444,-0.998256 c -1.702288,-0.157619 -8.36433,-1.986003 -8.36433,-1.986003 0,0 -3.635752,-0.07356 -9.972048,-0.07356 -7.450138,0 -48.6518221,1.859908 -48.6518221,1.859908 L -5.22e-6,52.762436 45.993305,73.231928 c 1.408066,0.798605 3.394069,2.25921 3.993022,2.25921"
     id="path6" />
  <path
     class="cls-1"
     d="m 184.0573,126.82249 c 17.72692,0 77.71682,-0.80911 126.48423,0 21.68841,0.36778 41.57997,1.4606 53.82174,2.39581 4.64451,0.35727 4.38181,1.56569 2.81613,3.74083 -1.56569,2.19617 -8.23824,7.28201 -12.79869,11.7584 -4.59198,4.47639 -2.81613,11.14894 -1.04029,17.48524 1.74432,6.26274 12.73564,35.71653 18.6306,53.29633 0.0736,0.24169 -0.0841,0.60947 0,0.84064 -2.29073,2.92121 -5.72683,14.25929 -6.97728,19.57632 -1.25044,5.30651 -5.10686,27.06848 -9.47817,39.65701 -4.37131,12.59904 -16.12971,39.04755 -35.07555,56.95311 -18.94584,17.90555 -45.90925,29.24363 -68.50134,34.56065 -22.5921,5.30652 -74.95323,7.70233 -98.79578,8.01757 -2.81613,0.042 -3.55169,-0.31524 -4.47639,-1.25044 -0.9352,-0.93521 -2.39581,-3.54118 -4.68654,-3.43611 -2.29074,0.10508 -3.55169,1.56569 -5.51668,4.59198 -4.47639,0.83013 -23.93712,1.25045 -32.26992,1.35553 -8.332809,0.10508 -32.889895,0 -40.907463,-1.04029 2.385305,-2.18566 5.201437,-4.90722 13.418656,-10.93878 8.227727,-6.05258 38.732317,-13.219 47.790167,-15.41517 5.78989,-1.39755 5.4116,-5.00178 5.937,-8.21722 0.52539,-3.22594 -0.93521,-8.42737 -2.5009,-11.04386 -1.56568,-2.59546 -2.19616,-8.84769 -2.39581,-13.84948 -0.21016,-5.00178 0.5254,-33.8251 0.5254,-38.19641 0,-4.3713 2.71105,-6.04207 4.80213,-8.53245 2.09109,-2.5009 0.83013,-5.83192 -1.4606,-7.29252 -1.37654,-0.86166 -2.81613,-3.22595 -2.81613,-5.72684 0,-2.50089 0,-37.99676 0.52539,-45.69909 0.5254,-7.70232 11.66383,-20.08069 19.47124,-26.63766 -2.19616,-1.4606 -6.96677,-2.71105 -10.8337,-2.81613 -3.84591,-0.10508 -8.21722,-0.93521 -13.32408,-2.81613 -5.10687,-1.87041 -27.068491,-16.55003 -38.301492,-24.35743 -11.24351,-7.80741 -28.529093,-19.36616 -30.809319,-21.1315 -2.290733,-1.77584 -5.222452,-5.01229 -5.422103,-6.46239 16.770693,-0.93521 108.589184,0.63048 134.197064,0.63048 m -15.22602,24.48353 c 4.3608,4.05607 19.77597,19.156 23.72696,22.48702 3.9615,3.33102 10.20322,10.82319 10.3083,15.09993 -4.26623,0.42031 -17.17,0.10508 -20.19629,-0.72505 -3.01578,-0.84064 -4.15064,-0.84064 -3.95099,1.67076 0.63048,7.80741 3.13137,51.11069 3.44661,54.53628 0.31524,3.42559 1.14537,5.63226 2.71105,7.3976 1.55518,1.77584 11.43266,11.96856 13.10342,14.77418 -2.39581,2.71105 -10.3083,10.41338 -11.65332,11.86348 -1.35552,1.4606 -3.23645,2.50089 -3.34153,7.71284 -0.10508,5.21194 -0.31524,25.71296 0.10508,29.66395 0.42032,3.9615 1.35553,18.94584 -0.5254,22.28737 8.54297,0 39.53092,-0.30474 53.23329,-0.9247 15.55177,-0.70404 32.1018,-7.21897 42.74636,-18.02114 14.15421,-14.36438 17.3171,-36.16838 19.57631,-49.56602 1.56569,-9.2575 -0.9352,-14.77418 5.30652,-26.43801 -1.04029,-9.98255 -0.31524,-20.39593 -0.21016,-23.83204 0.10508,-3.4466 -1.14537,-12.2943 -2.60597,-17.69539 -1.46061,-5.4221 -3.01578,-20.30136 -11.03335,-26.85833 3.13137,-2.92121 5.21194,-5.84242 7.07185,-7.60775 1.88092,-1.77585 3.87743,-4.29776 -0.83013,-5.83192 -11.86348,-3.84591 -42.88295,-8.3223 -63.2894,-8.95277 -17.01238,-0.5254 -53.41192,-2.18566 -63.70972,-1.04029"
     id="path7" />
</svg>
