<?xml version="1.0" encoding="UTF-8" standalone="no"?>
<!-- Generator: Adobe Illustrator 27.0.0, SVG Export Plug-In . SVG Version: 6.00 Build 0)  -->

<svg
   version="1.1"
   id="Layer_1"
   x="0px"
   y="0px"
   viewBox="0 0 960 480"
   xml:space="preserve"
   sodipodi:docname="text.svg"
   width="960"
   height="480"
   inkscape:version="1.4.3 (0d15f75, 2025-12-25)"
   xmlns:inkscape="http://www.inkscape.org/namespaces/inkscape"
   xmlns:sodipodi="http://sodipodi.sourceforge.net/DTD/sodipodi-0.dtd"
   xmlns="http://www.w3.org/2000/svg"
   xmlns:svg="http://www.w3.org/2000/svg"><defs
   id="defs16" /><sodipodi:namedview
   id="namedview16"
   pagecolor="#ffffff"
   bordercolor="#000000"
   borderopacity="0.25"
   inkscape:showpageshadow="2"
   inkscape:pageopacity="0.0"
   inkscape:pagecheckerboard="0"
   inkscape:deskcolor="#d1d1d1"
   showguides="true"
   inkscape:zoom="0.795"
   inkscape:cx="438.99371"
   inkscape:cy="357.86164"
   inkscape:window-width="1920"
   inkscape:window-height="1009"
   inkscape:window-x="-8"
   inkscape:window-y="-8"
   inkscape:window-maximized="1"
   inkscape:current-layer="Layer_1" />
<style
   type="text/css"
   id="style1">
	.st0{fill-rule:evenodd;clip-rule:evenodd;fill:#A00000;}
	.st1{fill-rule:evenodd;clip-rule:evenodd;}
</style>















<path
   class="st0"
   d="m 521.09131,66.817026 -86.48964,0.698435 c 0,0 7.04256,16.064024 13.73591,29.159695 6.69334,13.095674 8.38123,18.101124 9.7199,28.461254 1.33866,10.41834 10.41833,20.83667 11.757,31.95344 1.04765,8.55584 -0.58203,14.72536 0.0582,21.59331 l 42.25537,-0.87305 c -1.10586,-6.22772 -1.8625,-10.65114 -3.8414,-15.36558 -4.13241,-9.95271 -11.6988,-9.95271 -11.6988,-18.15933 0,-8.20662 2.91015,-10.53474 1.74609,-21.70972 -1.16406,-11.11677 8.43943,-36.784282 8.43943,-36.784282 l -16.06402,7.391779 10.41833,-11.407785 z"
   id="path1"
   style="stroke-width:0.58203" /><path
   class="st0"
   d="m 470.3383,181.82612 c 0.23282,1.04765 0.46563,2.09531 0.81485,3.20116 3.08475,9.77811 7.50818,29.68353 11.52419,36.31867 4.016,6.63514 6.63514,11.52419 5.76209,21.30229 -0.40742,4.77264 2.21172,15.48199 5.58749,26.77337 l 14.55074,-8.49764 c 0.58203,-5.64569 0.0582,-11.34958 -1.16406,-16.87886 -0.52382,-2.44453 -1.22226,-4.83085 -1.92069,-7.21717 -0.58203,-1.9789 -1.39688,-4.24882 -1.28047,-6.34413 l 0.0582,-1.10585 0.34922,-1.04766 c 1.51328,-4.13241 3.7832,-9.60349 6.46053,-14.66715 l -1.51327,-0.1164 z"
   id="path2"
   style="stroke-width:0.58203" /><path
   class="st0"
   d="m 382.21899,223.09203 -17.34449,20.54566 -0.0582,0.23281 12.74645,-0.46562 8.78865,-8.55584 z"
   id="path3"
   style="stroke-width:0.58203" /><path
   class="st0"
   d="m 499.03238,285.13641 c 2.0371,6.16952 4.016,11.6988 5.35467,15.5984 4.88905,13.73591 32.36086,111.69153 36.78429,128.97781 0,0 7.68279,-9.66169 7.9738,-15.54019 0.29102,-5.8203 2.32812,-9.89451 6.40233,-12.80466 4.07421,-2.91015 9.60349,-28.57766 13.09567,-45.16551 3.49218,-16.58785 0,-20.13824 4.94726,-27.70462 4.71444,-7.21717 19.26518,-40.74209 24.96908,-57.27174 -1.45508,1.16406 -2.96836,2.21172 -4.36523,3.14296 l -6.11131,3.95781 c -1.8625,1.92069 -3.66679,3.37577 -5.12186,3.9578 -0.52383,0.23281 -1.16406,0.40742 -1.8625,0.52383 l -5.58748,3.60858 1.16405,-2.96835 c -1.22226,0.1164 -2.38632,0.17461 -3.31757,0.29101 -4.83084,0.40742 -9.66169,0.69844 -14.49254,0.93125 -2.61913,0.11641 -5.23827,0.23281 -7.9156,0.34922 -3.02656,8.32303 -5.64569,15.83121 -7.04256,21.70971 -3.49218,15.24918 -8.20663,28.11204 -8.20663,28.11204 0,0 -7.44998,-25.72572 -12.92106,-50.57839 -0.93125,0.11641 -1.80429,0.23281 -2.50273,0.46562 -3.72499,1.04766 -11.64059,0.69844 -15.6566,0.58203 -1.74609,-0.0582 -3.66679,-0.1164 -5.58748,-0.17461 z"
   id="path4"
   style="stroke-width:0.58203" /><path
   class="st0"
   d="m 609.61804,227.10804 c 1.57148,-7.56639 2.79375,-13.85231 3.31757,-16.87886 1.51328,-8.49764 5.41288,-10.41834 -0.40742,-21.18589 0,0 0.58203,-2.61913 1.51328,-6.98436 l -8.49764,7.741 c -3.60858,3.25937 -6.40232,6.46053 -8.84685,10.59294 -1.45507,2.50273 -2.73554,4.77265 -4.19061,7.04256 5.06366,4.53984 13.91051,12.97927 17.11167,19.67261 z"
   id="path5"
   style="stroke-width:0.58203" /><path
   class="st0"
   d="m 615.08912,177.4609 c 4.24882,-18.97418 13.03747,-56.68971 20.08003,-77.11896 9.6617,-28.053834 21.4187,-71.88068 21.4187,-71.88068 0,0 -19.498,33.466715 -25.26009,44.641688 -3.49218,6.751546 -24.38705,59.134232 -41.78975,104.416152 z"
   id="path6"
   style="stroke-width:0.58203" /><path
   class="st0"
   d="m 568.41033,234.55802 c -1.22226,3.55038 -2.09531,6.34413 -2.61913,8.26483 -1.39687,5.12186 -3.14296,10.53474 -5.06366,16.00582 l 0.64023,0.0582 c 6.63514,0.93125 9.54529,-0.75664 13.09567,-6.16952 2.32812,-3.43397 1.22226,-13.7359 -1.33867,-17.22808 -1.04765,-0.46562 -2.67733,-0.75664 -4.71444,-0.93125 z"
   id="path7"
   style="stroke-width:0.58203" /><path
   class="st0"
   d="m 303.41215,66.642417 122.16806,-1.16406 c 0,0 -21.18588,21.185886 -23.92143,31.196799 -2.50272,9.254274 -2.0953,61.753364 -2.38632,81.425974 l -46.67879,-0.98945 c -0.0582,-13.79411 1.57148,-45.92216 3.14296,-52.7319 1.74609,-7.50819 5.29647,-15.5402 0,-19.03238 -5.29647,-3.55038 -5.29647,-17.751909 -10.18552,-19.032375 -4.83085,-1.396872 -42.13896,-19.672608 -42.13896,-19.672608 z"
   id="path8"
   style="stroke-width:0.58203" /><path
   class="st0"
   d="m 400.90215,277.74464 c -1.45508,9.8945 -3.37578,18.15933 -6.98436,24.85267 -6.22772,11.52419 -4.88905,69.61077 -4.42343,84.68534 0.46563,15.07457 -6.22772,64.25609 -6.22772,64.25609 0,0 -4.88905,-19.03237 -6.22772,-42.08075 -1.33867,-23.04838 -5.29647,-85.09276 -9.31247,-103.2521 -1.62969,-7.39177 -4.13242,-24.32884 -6.46054,-42.60458 l 25.55111,0.64023 6.69335,-7.04256 z"
   id="path9"
   style="stroke-width:0.58203" /><path
   class="st0"
   d="m 355.44562,208.36668 c -0.17461,-3.20116 -0.23282,-5.52928 -0.11641,-6.86795 0.17461,-1.74609 0.17461,-3.20117 0.11641,-4.48163 1.68788,1.04765 3.37577,2.09531 5.06366,3.08476 0,0.0582 -0.0582,0.0582 -0.0582,0.1164 -1.16406,1.9207 -2.38632,3.8414 -3.55038,5.8203 -0.46562,0.75664 -0.93125,1.57148 -1.45507,2.32812 z"
   id="path10"
   style="stroke-width:0.58203" /><path
   class="st1"
   d="M -8.01e-7,181.94253 H 153.83048 c 0,0 -15.24918,8.03201 -11.40778,15.07457 3.8414,6.98436 9.48708,27.87923 9.48708,27.87923 0,0 -3.84139,7.8574 -4.36522,14.89996 -0.52383,7.04256 -4.19061,32.06984 -24.67806,45.22372 -23.3394,14.95817 -97.431797,15.07457 -118.0938562,15.07457 0,0 8.7886502,-12.28083 20.4874502,-13.15387 11.757002,-0.87305 13.328483,-0.17461 13.328483,-0.17461 0,0 -0.232812,-4.36523 -1.396872,-10.65115 -1.164059,-6.34412 -0.232812,-24.79447 -0.232812,-24.79447 l 4.598036,-4.13241 -4.248818,-1.51328 c 0,0 0.116406,-22.58276 0.116406,-24.56166 0,-1.9789 9.894507,-12.68825 9.894507,-12.68825 0,0 -5.878501,1.74609 -10.360131,-0.58203 C 32.477264,205.51473 -8.01e-7,181.94253 -8.01e-7,181.94253 Z M 71.065841,209.87996 54.943615,192.88469 c 0,0 42.953802,1.22226 52.382685,3.14296 9.48709,1.9207 11.58239,2.61913 11.58239,2.61913 0,0 -9.13786,4.71444 -6.63514,7.8574 2.44453,3.14297 6.98436,8.61405 6.98436,27.1808 0,18.56675 -9.8363,40.9749 -20.487449,44.8745 -10.709349,3.84139 -37.482721,2.44452 -37.482721,2.44452 -0.873044,-9.37068 5.471081,0.69844 -1.338668,-25.20189 0,0 4.365223,-6.11131 9.021462,-7.7992 l -7.973809,-7.97381 -2.095307,-31.42961 z m 4.132412,-5.93671 c 0.116406,-0.93124 0.174609,-1.9789 0.291015,-3.14296 l -3.433976,-0.17461 z"
   id="path11"
   style="stroke-width:0.58203" /><path
   class="st1"
   d="m 205.92215,185.3765 51.16043,-1.39687 -14.20153,10.18552 c 0,0 2.44452,7.33358 1.57148,9.48709 -0.87305,2.09531 -1.74609,40.85849 -1.39687,42.42997 0.52382,2.44453 -2.96836,22.87378 9.8363,29.79993 4.19062,2.26992 5.7621,4.01601 5.7621,4.01601 0,0 -15.77301,1.57148 -19.96363,-0.52383 -4.19061,-2.09531 -13.15387,0.34922 -18.21753,0.52383 -5.06366,0.17461 -14.72536,0.34921 -14.72536,0.34921 0,0 10.53474,-5.41287 11.75701,-14.55074 1.22226,-9.13787 3.14296,-13.6777 4.016,-16.47145 0.87305,-2.79374 1.57148,-25.4347 0.52383,-35.03819 -1.04765,-9.6617 -2.26992,-8.78865 -1.22226,-12.63005 1.04765,-3.8414 1.57148,-5.06366 1.57148,-5.06366 z"
   id="path12"
   style="stroke-width:0.58203" /><path
   class="st1"
   d="m 348.34485,184.15424 61.57876,1.33867 c 0,0 -8.55584,7.44998 -8.55584,12.51364 0,5.06366 12.28083,25.3183 12.28083,25.3183 l -1.33867,4.53983 4.65624,2.32812 c 0,0 9.8363,30.14914 12.28083,35.38741 2.44452,5.23827 17.5191,12.10622 17.5191,12.10622 h -38.35577 l -12.10622,-33.81593 -12.45544,13.15387 -27.70462,-0.69843 c 0,0 -6.63514,7.33357 -8.61404,12.45544 -1.9207,5.06366 -3.66679,19.6144 -7.50818,24.03783 -3.8414,4.36522 -3.31757,11.05857 -3.8414,20.66206 -0.52383,9.66169 -0.52383,27.87923 -0.52383,27.87923 0,0 -10.88396,-15.5984 -12.28083,-27.35541 -1.39687,-11.757 0.17461,-13.50309 -0.34922,-23.4558 -0.52382,-10.01091 -4.36522,-20.48745 -0.1746,-22.75736 4.19061,-2.26992 12.63004,0.87304 14.02691,-5.23827 1.39688,-6.11132 -1.39687,-13.85231 -1.39687,-13.85231 0,0 22.93198,-31.1968 27.53001,-38.8796 4.53984,-7.68279 8.26483,-11.757 4.01601,-14.02691 -4.19061,-2.44453 -18.68316,-11.6406 -18.68316,-11.6406 z m 36.43507,24.91088 9.89451,27.70462 -14.02692,13.6777 -24.03783,0.87304 1.57148,-10.70935 z"
   id="path13"
   style="stroke-width:0.58203" /><path
   class="st1"
   d="m 486.11131,185.4347 51.74246,-1.04765 1.16405,3.02656 1.62969,-3.37578 10.24372,0.40742 1.51328,1.62969 4.19062,-1.45508 44.17606,-0.0582 c -11.11677,10.12732 -10.47654,15.01637 -16.82066,22.58276 -2.32812,2.79374 -13.6777,11.757 -13.6777,11.757 6.63514,1.62968 13.50309,0.52383 17.28628,-6.34412 0,0 14.43434,12.68825 16.12223,18.79956 1.68789,6.11131 0.29101,24.21244 -3.20117,28.51946 -3.49217,4.24882 -10.06911,8.55584 -10.06911,8.55584 l 2.91015,-7.33358 c 0,0 -10.36013,13.5613 -12.97927,14.60895 -2.61913,1.04766 -40.10185,3.20117 -45.45653,1.9789 -5.35467,-1.22226 -12.97926,-0.75664 -16.29683,0.17461 -3.37578,0.93125 -24.85268,0 -24.85268,0 l 21.3605,-12.51364 c 3.20116,-17.16988 -3.8996,-32.12805 -3.7832,-34.63077 0,0 6.11132,-16.93707 12.33904,-23.04839 l -11.29138,-1.04765 z m 86.14042,8.55584 c 0,0 -5.18007,4.59804 -5.35468,9.02147 -0.17461,4.42342 -20.42924,24.85267 -20.42924,24.85267 0,0 27.00618,-2.61913 31.54601,2.44452 4.59804,5.00546 6.86796,19.498 2.32812,26.36596 -4.53983,6.80975 -9.66169,10.70934 -19.96362,9.31247 -10.36013,-1.39687 -15.42379,-1.57148 -15.42379,-1.57148 l -9.13787,3.8414 0.34922,-20.83667 6.80975,-6.63514 -4.36523,-3.31757 0.34922,-25.60931 5.7621,-4.01601 -16.41324,-13.27028 z"
   id="path14"
   style="stroke-width:0.58203" /><path
   class="st1"
   d="m 673.05929,184.09604 49.58895,-0.52383 -9.31248,9.60349 0.29101,17.86832 2.91015,4.53983 -2.67733,5.58749 -0.81485,38.12295 -4.24881,8.55584 25.08548,-4.01601 21.88432,3.49218 -0.52382,-31.1968 5.06366,17.86832 22.40814,25.60931 c 0,0 -26.13313,0.52383 -30.38195,-0.52383 -4.24882,-1.04765 -13.03747,-4.24881 -13.03747,-4.24881 l -6.69334,3.20116 -66.93343,1.04765 26.13314,-19.73081 -1.10586,-20.08003 -3.49218,-5.76209 4.36522,-8.26482 0.52383,-24.38705 2.09531,-5.06366 z"
   id="path15"
   style="stroke-width:0.58203" /><path
   class="st1"
   d="m 959.06875,182.69916 c 0,0 -45.45653,-2.0953 -61.22954,-2.0953 -15.773,0 -54.7108,14.60895 -65.12913,36.84249 -10.41834,22.23354 4.42342,55.17642 21.76791,66.52601 17.40269,11.34958 43.36122,14.37613 58.66861,9.71989 15.30738,-4.65624 37.77374,-28.98508 40.33467,-36.60967 3.84139,-11.52419 2.32812,-23.74682 6.51873,-34.10695 -9.07966,-1.68789 -12.39723,-19.03238 -37.54092,-20.66206 0,0 3.02655,-4.65624 10.41833,-4.42343 7.39178,0.34922 26.19134,-15.19098 26.19134,-15.19098 z m -32.94289,6.22772 c -3.49217,-0.46562 -35.73663,-1.62968 -43.12841,1.16406 -7.39177,2.79375 -21.36049,16.47145 -25.02728,30.84758 -3.72499,14.37614 -3.9578,35.50382 0.93125,47.78465 4.88905,12.28083 25.26009,21.3605 39.40342,17.86832 14.14332,-3.49218 16.70425,-3.72499 23.86322,-20.42925 7.15897,-16.70425 1.39687,-28.05384 1.39687,-28.05384 0,0 6.51874,-3.72499 0.93125,-12.51364 -5.58749,-8.78865 -13.21208,-22.00072 -27.58821,-23.16478 0,-0.0582 23.92142,-7.21717 29.21789,-13.5031 z"
   id="path16"
   style="stroke-width:0.58203" />
</svg>
