<?xml version="1.0" encoding="UTF-8" standalone="no"?>
<svg
    width="60"
    height="60"
    class="symbol"
    viewBox="0 0 15.874999 15.875"
    version="1.1"
    xmlns:xlink="http://www.w3.org/1999/xlink"
    xmlns="http://www.w3.org/2000/svg"
    xmlns:svg="http://www.w3.org/2000/svg">
    <g transform="translate(-59.531242,-115.09374)">
        <g transform="matrix(2,0,0,2,-59.531251,-115.09375)">
            <circle
                fill="var(--background)"
                cx="63.499996"
                cy="119.06249"
                r="3.9687498" />
            <path
                fill="currentColor"
                style="fill-opacity:1;stroke-width:0;stroke-dasharray:none"
                d="m 63.499991,116.25616 c -1.549893,0 -2.806331,1.25644 -2.806331,2.80633 0,1.54989 1.256438,2.80634 2.806331,2.80634 0.690838,-0.001 1.356986,-0.25706 1.870887,-0.71877 v 0.71877 h 0.935443 v -2.80634 -2.80633 l -0.935443,0.18709 v 0.52765 c -0.514497,-0.46024 -1.180578,-0.7147 -1.870887,-0.71474 z m 0,0.93544 c 1.033263,0 1.870889,0.83763 1.870887,1.87089 -2e-6,1.03326 -0.837627,1.87089 -1.870887,1.87089 -1.033261,0 -1.870886,-0.83763 -1.870887,-1.87089 -3e-6,-1.03326 0.837624,-1.87089 1.870887,-1.87089 z"/>
        </g>
    </g>
</svg>
