<?xml version="1.0" encoding="UTF-8" standalone="no"?>
<svg
    width="191.53479"
    height="30.000002"
    class="text"
    viewBox="0 0 50.676911 7.9375003"
    version="1.1"
    xmlns="http://www.w3.org/2000/svg"
    xmlns:xlink="http://www.w3.org/1999/xlink">
    <g transform="translate(-59.531248,-115.09374)">
    <path
        fill="var(--brand-color)"
        style="stroke-width: 0;stroke-dasharray: none"
        d="m 70.114562,115.09374 -1.322914,0.26458 v 7.67292 h 1.322914 z m -6.614571,1e-5 c -2.191875,0 -3.968743,1.77687 -3.968743,3.96874 0,2.19187 1.776868,3.96875 3.968743,3.96875 0.976991,-0.002 1.919064,-0.36354 2.645828,-1.01649 v 1.01649 h 1.322914 v -3.96875 -3.96874 l -1.322914,0.26458 v 0.74621 c -0.727606,-0.65088 -1.669586,-1.01074 -2.645828,-1.01079 z m 11.906228,0 -3.968743,3.96874 3.968743,3.96875 h 0.935341 v -0.93535 l -3.0334,-3.0334 3.0334,-3.0334 v -0.93534 z m 6.226999,0 c -2.191875,0 -3.968743,1.77687 -3.968743,3.96874 0,2.19187 1.776868,3.96875 3.968743,3.96875 0.976992,-0.002 1.919064,-0.36354 2.645827,-1.01649 v 1.01649 h 1.322914 v -3.96875 -3.96874 l -1.322914,0.26458 v 0.74621 c -0.727605,-0.65088 -1.669586,-1.01074 -2.645827,-1.01079 z m 9.260399,0 c -2.191877,0 -3.968743,1.77687 -3.968743,3.96874 0,2.19188 1.776866,3.96875 3.968743,3.96875 2.191875,0 3.968742,-1.77687 3.968742,-3.96875 0,-2.19187 -1.776867,-3.96874 -3.968742,-3.96874 z m 10.054143,0 -1.32291,0.26458 v 7.67291 h 1.32291 z m 5.29167,0 c -2.19188,0 -3.96875,1.77687 -3.96875,3.96874 0,2.19188 1.77687,3.96875 3.96875,3.96875 2.19187,0 3.96873,-1.77687 3.96873,-3.96875 0,-2.19187 -1.77686,-3.96874 -3.96873,-3.96874 z m -42.739439,1.32291 c 1.461252,0 2.645831,1.18458 2.645828,2.64583 -2e-6,1.46124 -1.18458,2.64583 -2.645828,2.64583 -1.461249,0 -2.645826,-1.18459 -2.645828,-2.64583 -4e-6,-1.46125 1.184576,-2.64583 2.645828,-2.64583 z m 18.133227,0 c 1.46125,0 2.645831,1.18458 2.645827,2.64583 -2e-6,1.46124 -1.18458,2.64583 -2.645827,2.64583 -1.461249,0 -2.645828,-1.18459 -2.64583,-2.64583 -4e-6,-1.46125 1.184577,-2.64583 2.64583,-2.64583 z m 9.260399,0 c 1.461252,0 2.645831,1.18458 2.645827,2.64583 -2e-6,1.46125 -1.184578,2.64583 -2.645827,2.64583 -1.46125,0 -2.645827,-1.18458 -2.645829,-2.64583 -4e-6,-1.46125 1.184575,-2.64583 2.645829,-2.64583 z m 15.345813,0 c 1.46124,0 2.64582,1.18459 2.64582,2.64583 0,1.46125 -1.18458,2.64583 -2.64582,2.64583 -1.46125,0 -2.64584,-1.18458 -2.64584,-2.64583 0,-1.46125 1.18458,-2.64583 2.64584,-2.64583 z m -8.995825,1.58749 c -0.584505,0 -1.058339,0.47384 -1.058332,1.05834 -2e-6,0.5845 0.473831,1.05833 1.058332,1.05833 0.584499,0 1.058333,-0.47383 1.058333,-1.05833 0,-0.5845 -0.473829,-1.05834 -1.058333,-1.05834 z" />
    </g>
</svg>
